G75*
G70*
%OFA0B0*%
%FSLAX24Y24*%
%IPPOS*%
%LPD*%
%AMOC8*
5,1,8,0,0,1.08239X$1,22.5*
%
%ADD10C,0.0000*%
%ADD11R,0.0453X0.0158*%
%ADD12R,0.0316X0.0394*%
%ADD13R,0.0394X0.0316*%
%ADD14OC8,0.0640*%
%ADD15R,0.0631X0.0552*%
D10*
X000180Y000600D02*
X000180Y020200D01*
X017780Y020200D01*
X017780Y000600D01*
X000180Y000600D01*
D11*
X003765Y002344D03*
X003765Y002600D03*
X003765Y002856D03*
X004395Y002856D03*
X004395Y002600D03*
X004395Y002344D03*
X004395Y006844D03*
X004395Y007100D03*
X004395Y007356D03*
X003765Y007356D03*
X003765Y007100D03*
X003765Y006844D03*
X003765Y011344D03*
X003765Y011600D03*
X003765Y011856D03*
X004395Y011856D03*
X004395Y011600D03*
X004395Y011344D03*
X004395Y016344D03*
X004395Y016600D03*
X004395Y016856D03*
X003765Y016856D03*
X003765Y016600D03*
X003765Y016344D03*
X009865Y016344D03*
X009865Y016600D03*
X009865Y016856D03*
X010495Y016856D03*
X010495Y016600D03*
X010495Y016344D03*
X010495Y011856D03*
X010495Y011600D03*
X010495Y011344D03*
X009865Y011344D03*
X009865Y011600D03*
X009865Y011856D03*
X009865Y007356D03*
X009865Y007100D03*
X009865Y006844D03*
X010495Y006844D03*
X010495Y007100D03*
X010495Y007356D03*
X010495Y002856D03*
X010495Y002600D03*
X010495Y002344D03*
X009865Y002344D03*
X009865Y002600D03*
X009865Y002856D03*
D12*
X009924Y001100D03*
X010436Y001100D03*
X010436Y005600D03*
X009924Y005600D03*
X009924Y010100D03*
X010436Y010100D03*
X010436Y015100D03*
X009924Y015100D03*
X004336Y015100D03*
X003824Y015100D03*
X003824Y010100D03*
X004336Y010100D03*
X004336Y005600D03*
X003824Y005600D03*
X003824Y001100D03*
X004336Y001100D03*
D13*
X002780Y001844D03*
X002780Y002356D03*
X002780Y006344D03*
X002780Y006856D03*
X002780Y010844D03*
X002780Y011356D03*
X002880Y015844D03*
X002880Y016356D03*
X003080Y018344D03*
X003080Y018856D03*
X005080Y018856D03*
X005080Y018344D03*
X008980Y016356D03*
X008980Y015844D03*
X009180Y018344D03*
X009180Y018856D03*
X011180Y018856D03*
X011180Y018344D03*
X008980Y011356D03*
X008980Y010844D03*
X008980Y006856D03*
X008980Y006344D03*
X008880Y002356D03*
X008880Y001844D03*
D14*
X015680Y001600D03*
X015680Y002600D03*
X015680Y003600D03*
X015680Y004600D03*
X015680Y005600D03*
X015680Y006600D03*
X015680Y007600D03*
X015680Y008600D03*
X015680Y009600D03*
X015680Y010600D03*
X015680Y011600D03*
X015680Y012600D03*
X015680Y013600D03*
X015680Y014600D03*
X015680Y015600D03*
X015680Y016600D03*
X016680Y016600D03*
X016680Y015600D03*
X016680Y014600D03*
X016680Y013600D03*
X016680Y012600D03*
X016680Y011600D03*
X016680Y010600D03*
X016680Y009600D03*
X016680Y008600D03*
X016680Y007600D03*
X016680Y006600D03*
X016680Y005600D03*
X016680Y004600D03*
X016680Y003600D03*
X016680Y002600D03*
X016680Y001600D03*
D15*
X007180Y017365D03*
X007180Y018035D03*
M02*
