%
M48
M72
T01C0.0236
T02C0.0400
%
T01
X2100Y18300
X5600Y17800
X9900Y2700
X3300Y17200
X3200Y15300
X3200Y1300
X3200Y5900
X3200Y10300
X9400Y17200
X9300Y1300
X9300Y5800
X9300Y10300
X9300Y15300
X7000Y6900
X3900Y8100
X3900Y3600
X3900Y12900
X10100Y12900
X10100Y8200
X10100Y3700
X4000Y17100
X10200Y17200
X1500Y18700
X1400Y11300
X1400Y6800
X1500Y1400
X7100Y11300
X7000Y15600
X1200Y16300
X7000Y1500
T02
X15500Y16000
X16500Y16000
X15500Y15000
X16500Y15000
X15500Y14000
X16500Y14000
X15500Y13000
X16500Y13000
X15500Y12000
X16500Y12000
X15500Y11000
X16500Y11000
X15500Y10000
X16500Y10000
X15500Y9000
X16500Y9000
X15500Y8000
X16500Y8000
X15500Y7000
X16500Y7000
X15500Y6000
X16500Y6000
X15500Y5000
X16500Y5000
X15500Y4000
X16500Y4000
X15500Y3000
X16500Y3000
X15500Y2000
X16500Y2000
X15500Y1000
X16500Y1000
M30
