G75*
G70*
%OFA0B0*%
%FSLAX24Y24*%
%IPPOS*%
%LPD*%
%AMOC8*
5,1,8,0,0,1.08239X$1,22.5*
%
%ADD10C,0.0000*%
%ADD11C,0.0060*%
%ADD12C,0.0050*%
%ADD13C,0.0040*%
%ADD14R,0.0118X0.0236*%
%ADD15R,0.0236X0.0118*%
%ADD16R,0.0200X0.0200*%
%ADD17R,0.0571X0.0295*%
D10*
X000180Y000600D02*
X000180Y020200D01*
X017780Y020200D01*
X017780Y000600D01*
X000180Y000600D01*
D11*
X002692Y002004D02*
X002692Y002196D01*
X002868Y002196D02*
X002868Y002004D01*
X003984Y001188D02*
X004176Y001188D01*
X004176Y001012D02*
X003984Y001012D01*
X003984Y005512D02*
X004176Y005512D01*
X004176Y005688D02*
X003984Y005688D01*
X002868Y006504D02*
X002868Y006696D01*
X002692Y006696D02*
X002692Y006504D01*
X003984Y010012D02*
X004176Y010012D01*
X004176Y010188D02*
X003984Y010188D01*
X002868Y011004D02*
X002868Y011196D01*
X002692Y011196D02*
X002692Y011004D01*
X004754Y013037D02*
X004861Y012930D01*
X005074Y012930D01*
X005181Y013037D01*
X005181Y013144D01*
X005074Y013250D01*
X004861Y013250D01*
X004754Y013357D01*
X004754Y013464D01*
X004861Y013571D01*
X005074Y013571D01*
X005181Y013464D01*
X005399Y013571D02*
X005826Y013571D01*
X005612Y013571D02*
X005612Y012930D01*
X006257Y012930D02*
X006257Y013571D01*
X006470Y013571D02*
X006043Y013571D01*
X006688Y013464D02*
X006688Y013357D01*
X006794Y013250D01*
X007008Y013250D01*
X007115Y013144D01*
X007115Y013037D01*
X007008Y012930D01*
X006794Y012930D01*
X006688Y013037D01*
X006688Y013464D02*
X006794Y013571D01*
X007008Y013571D01*
X007115Y013464D01*
X007332Y013571D02*
X007759Y013571D01*
X007759Y013464D01*
X007332Y013037D01*
X007332Y012930D01*
X007977Y013037D02*
X008084Y012930D01*
X008297Y012930D01*
X008404Y013037D01*
X008404Y013250D01*
X008297Y013357D01*
X008190Y013357D01*
X007977Y013250D01*
X007977Y013571D01*
X008404Y013571D01*
X008621Y013357D02*
X008835Y013571D01*
X008835Y012930D01*
X009048Y012930D02*
X008621Y012930D01*
X008892Y011196D02*
X008892Y011004D01*
X009068Y011004D02*
X009068Y011196D01*
X010084Y010188D02*
X010276Y010188D01*
X010276Y010012D02*
X010084Y010012D01*
X011810Y010130D02*
X011810Y010771D01*
X012130Y010771D01*
X012237Y010664D01*
X012237Y010450D01*
X012130Y010344D01*
X011810Y010344D01*
X012455Y010130D02*
X012882Y010557D01*
X012882Y010664D01*
X012775Y010771D01*
X012561Y010771D01*
X012455Y010664D01*
X012455Y010130D02*
X012882Y010130D01*
X013744Y010450D02*
X014171Y010450D01*
X014388Y010130D02*
X014815Y010450D01*
X014388Y010771D01*
X015180Y010850D02*
X015180Y010350D01*
X015430Y010100D01*
X016930Y010100D01*
X017180Y009850D01*
X017180Y009350D01*
X016930Y009100D01*
X015430Y009100D01*
X015180Y009350D01*
X015180Y009850D01*
X015430Y010100D01*
X015180Y010850D02*
X015430Y011100D01*
X016930Y011100D01*
X017180Y010850D01*
X017180Y010350D01*
X016930Y010100D01*
X016930Y009100D02*
X017180Y008850D01*
X017180Y008350D01*
X016930Y008100D01*
X015430Y008100D01*
X015180Y008350D01*
X015180Y008850D01*
X015430Y009100D01*
X015430Y008100D02*
X015180Y007850D01*
X015180Y007350D01*
X015430Y007100D01*
X016930Y007100D01*
X017180Y006850D01*
X017180Y006350D01*
X016930Y006100D01*
X015430Y006100D01*
X015180Y006350D01*
X015180Y006850D01*
X015430Y007100D01*
X015430Y006100D02*
X015180Y005850D01*
X015180Y005350D01*
X015430Y005100D01*
X016930Y005100D01*
X017180Y004850D01*
X017180Y004350D01*
X016930Y004100D01*
X015430Y004100D01*
X015180Y004350D01*
X015180Y004850D01*
X015430Y005100D01*
X015430Y004100D02*
X015180Y003850D01*
X015180Y003350D01*
X015430Y003100D01*
X016930Y003100D01*
X017180Y002850D01*
X017180Y002350D01*
X016930Y002100D01*
X015430Y002100D01*
X015180Y002350D01*
X015180Y002850D01*
X015430Y003100D01*
X015430Y002100D02*
X015180Y001850D01*
X015180Y001350D01*
X015430Y001100D01*
X016930Y001100D01*
X017180Y001350D01*
X017180Y001850D01*
X016930Y002100D01*
X016930Y003100D02*
X017180Y003350D01*
X017180Y003850D01*
X016930Y004100D01*
X016930Y005100D02*
X017180Y005350D01*
X017180Y005850D01*
X016930Y006100D01*
X016930Y007100D02*
X017180Y007350D01*
X017180Y007850D01*
X016930Y008100D01*
X016930Y011100D02*
X017180Y011350D01*
X017180Y011850D01*
X016930Y012100D01*
X015430Y012100D01*
X015180Y011850D01*
X015180Y011350D01*
X015430Y011100D01*
X015430Y012100D02*
X015180Y012350D01*
X015180Y012850D01*
X015430Y013100D01*
X016930Y013100D01*
X017180Y012850D01*
X017180Y012350D01*
X016930Y012100D01*
X016930Y013100D02*
X017180Y013350D01*
X017180Y013850D01*
X016930Y014100D01*
X015430Y014100D01*
X015180Y013850D01*
X015180Y013350D01*
X015430Y013100D01*
X015430Y014100D02*
X015180Y014350D01*
X015180Y014850D01*
X015430Y015100D01*
X016930Y015100D01*
X017180Y014850D01*
X017180Y014350D01*
X016930Y014100D01*
X016930Y015100D02*
X017180Y015350D01*
X017180Y015850D01*
X016930Y016100D01*
X015430Y016100D01*
X015180Y015850D01*
X015180Y015350D01*
X015430Y015100D01*
X015430Y016100D02*
X015180Y016350D01*
X015180Y016850D01*
X015430Y017100D01*
X016930Y017100D01*
X017180Y016850D01*
X017180Y016350D01*
X016930Y016100D01*
X011268Y018504D02*
X011268Y018696D01*
X011092Y018696D02*
X011092Y018504D01*
X009268Y018504D02*
X009268Y018696D01*
X009092Y018696D02*
X009092Y018504D01*
X009068Y016196D02*
X009068Y016004D01*
X008892Y016004D02*
X008892Y016196D01*
X010084Y015188D02*
X010276Y015188D01*
X010276Y015012D02*
X010084Y015012D01*
X005168Y018504D02*
X005168Y018696D01*
X004992Y018696D02*
X004992Y018504D01*
X003168Y018504D02*
X003168Y018696D01*
X002992Y018696D02*
X002992Y018504D01*
X002968Y016196D02*
X002968Y016004D01*
X002792Y016004D02*
X002792Y016196D01*
X003984Y015188D02*
X004176Y015188D01*
X004176Y015012D02*
X003984Y015012D01*
X008892Y006696D02*
X008892Y006504D01*
X009068Y006504D02*
X009068Y006696D01*
X010084Y005688D02*
X010276Y005688D01*
X010276Y005512D02*
X010084Y005512D01*
X008968Y002196D02*
X008968Y002004D01*
X008792Y002004D02*
X008792Y002196D01*
X010084Y001188D02*
X010276Y001188D01*
X010276Y001012D02*
X010084Y001012D01*
X011810Y001437D02*
X011917Y001330D01*
X012130Y001330D01*
X012237Y001437D01*
X012237Y001650D01*
X012024Y001650D01*
X012237Y001864D02*
X012130Y001971D01*
X011917Y001971D01*
X011810Y001864D01*
X011810Y001437D01*
X012455Y001330D02*
X012455Y001971D01*
X012882Y001330D01*
X012882Y001971D01*
X013099Y001971D02*
X013419Y001971D01*
X013526Y001864D01*
X013526Y001437D01*
X013419Y001330D01*
X013099Y001330D01*
X013099Y001971D01*
X014388Y001650D02*
X014815Y001650D01*
X015033Y001971D02*
X015460Y001650D01*
X015033Y001330D01*
D12*
X010574Y002206D02*
X009786Y002206D01*
X009786Y002994D01*
X010574Y002994D01*
X010574Y002206D01*
X009761Y003191D02*
X009763Y003209D01*
X009769Y003226D01*
X009778Y003242D01*
X009791Y003255D01*
X009806Y003265D01*
X009823Y003272D01*
X009840Y003275D01*
X009859Y003274D01*
X009876Y003269D01*
X009892Y003261D01*
X009906Y003249D01*
X009917Y003234D01*
X009925Y003218D01*
X009929Y003200D01*
X009929Y003182D01*
X009925Y003164D01*
X009917Y003148D01*
X009906Y003133D01*
X009892Y003121D01*
X009876Y003113D01*
X009859Y003108D01*
X009840Y003107D01*
X009823Y003110D01*
X009806Y003117D01*
X009791Y003127D01*
X009778Y003140D01*
X009769Y003156D01*
X009763Y003173D01*
X009761Y003191D01*
X009786Y006706D02*
X009786Y007494D01*
X010574Y007494D01*
X010574Y006706D01*
X009786Y006706D01*
X009761Y007691D02*
X009763Y007709D01*
X009769Y007726D01*
X009778Y007742D01*
X009791Y007755D01*
X009806Y007765D01*
X009823Y007772D01*
X009840Y007775D01*
X009859Y007774D01*
X009876Y007769D01*
X009892Y007761D01*
X009906Y007749D01*
X009917Y007734D01*
X009925Y007718D01*
X009929Y007700D01*
X009929Y007682D01*
X009925Y007664D01*
X009917Y007648D01*
X009906Y007633D01*
X009892Y007621D01*
X009876Y007613D01*
X009859Y007608D01*
X009840Y007607D01*
X009823Y007610D01*
X009806Y007617D01*
X009791Y007627D01*
X009778Y007640D01*
X009769Y007656D01*
X009763Y007673D01*
X009761Y007691D01*
X009786Y011206D02*
X009786Y011994D01*
X010574Y011994D01*
X010574Y011206D01*
X009786Y011206D01*
X009761Y012191D02*
X009763Y012209D01*
X009769Y012226D01*
X009778Y012242D01*
X009791Y012255D01*
X009806Y012265D01*
X009823Y012272D01*
X009840Y012275D01*
X009859Y012274D01*
X009876Y012269D01*
X009892Y012261D01*
X009906Y012249D01*
X009917Y012234D01*
X009925Y012218D01*
X009929Y012200D01*
X009929Y012182D01*
X009925Y012164D01*
X009917Y012148D01*
X009906Y012133D01*
X009892Y012121D01*
X009876Y012113D01*
X009859Y012108D01*
X009840Y012107D01*
X009823Y012110D01*
X009806Y012117D01*
X009791Y012127D01*
X009778Y012140D01*
X009769Y012156D01*
X009763Y012173D01*
X009761Y012191D01*
X009786Y016206D02*
X009786Y016994D01*
X010574Y016994D01*
X010574Y016206D01*
X009786Y016206D01*
X009761Y017191D02*
X009763Y017209D01*
X009769Y017226D01*
X009778Y017242D01*
X009791Y017255D01*
X009806Y017265D01*
X009823Y017272D01*
X009840Y017275D01*
X009859Y017274D01*
X009876Y017269D01*
X009892Y017261D01*
X009906Y017249D01*
X009917Y017234D01*
X009925Y017218D01*
X009929Y017200D01*
X009929Y017182D01*
X009925Y017164D01*
X009917Y017148D01*
X009906Y017133D01*
X009892Y017121D01*
X009876Y017113D01*
X009859Y017108D01*
X009840Y017107D01*
X009823Y017110D01*
X009806Y017117D01*
X009791Y017127D01*
X009778Y017140D01*
X009769Y017156D01*
X009763Y017173D01*
X009761Y017191D01*
X004474Y016994D02*
X004474Y016206D01*
X003686Y016206D01*
X003686Y016994D01*
X004474Y016994D01*
X003661Y017191D02*
X003663Y017209D01*
X003669Y017226D01*
X003678Y017242D01*
X003691Y017255D01*
X003706Y017265D01*
X003723Y017272D01*
X003740Y017275D01*
X003759Y017274D01*
X003776Y017269D01*
X003792Y017261D01*
X003806Y017249D01*
X003817Y017234D01*
X003825Y017218D01*
X003829Y017200D01*
X003829Y017182D01*
X003825Y017164D01*
X003817Y017148D01*
X003806Y017133D01*
X003792Y017121D01*
X003776Y017113D01*
X003759Y017108D01*
X003740Y017107D01*
X003723Y017110D01*
X003706Y017117D01*
X003691Y017127D01*
X003678Y017140D01*
X003669Y017156D01*
X003663Y017173D01*
X003661Y017191D01*
X003661Y012191D02*
X003663Y012209D01*
X003669Y012226D01*
X003678Y012242D01*
X003691Y012255D01*
X003706Y012265D01*
X003723Y012272D01*
X003740Y012275D01*
X003759Y012274D01*
X003776Y012269D01*
X003792Y012261D01*
X003806Y012249D01*
X003817Y012234D01*
X003825Y012218D01*
X003829Y012200D01*
X003829Y012182D01*
X003825Y012164D01*
X003817Y012148D01*
X003806Y012133D01*
X003792Y012121D01*
X003776Y012113D01*
X003759Y012108D01*
X003740Y012107D01*
X003723Y012110D01*
X003706Y012117D01*
X003691Y012127D01*
X003678Y012140D01*
X003669Y012156D01*
X003663Y012173D01*
X003661Y012191D01*
X003686Y011994D02*
X003686Y011206D01*
X004474Y011206D01*
X004474Y011994D01*
X003686Y011994D01*
X003661Y007691D02*
X003663Y007709D01*
X003669Y007726D01*
X003678Y007742D01*
X003691Y007755D01*
X003706Y007765D01*
X003723Y007772D01*
X003740Y007775D01*
X003759Y007774D01*
X003776Y007769D01*
X003792Y007761D01*
X003806Y007749D01*
X003817Y007734D01*
X003825Y007718D01*
X003829Y007700D01*
X003829Y007682D01*
X003825Y007664D01*
X003817Y007648D01*
X003806Y007633D01*
X003792Y007621D01*
X003776Y007613D01*
X003759Y007608D01*
X003740Y007607D01*
X003723Y007610D01*
X003706Y007617D01*
X003691Y007627D01*
X003678Y007640D01*
X003669Y007656D01*
X003663Y007673D01*
X003661Y007691D01*
X003686Y007494D02*
X003686Y006706D01*
X004474Y006706D01*
X004474Y007494D01*
X003686Y007494D01*
X003661Y003191D02*
X003663Y003209D01*
X003669Y003226D01*
X003678Y003242D01*
X003691Y003255D01*
X003706Y003265D01*
X003723Y003272D01*
X003740Y003275D01*
X003759Y003274D01*
X003776Y003269D01*
X003792Y003261D01*
X003806Y003249D01*
X003817Y003234D01*
X003825Y003218D01*
X003829Y003200D01*
X003829Y003182D01*
X003825Y003164D01*
X003817Y003148D01*
X003806Y003133D01*
X003792Y003121D01*
X003776Y003113D01*
X003759Y003108D01*
X003740Y003107D01*
X003723Y003110D01*
X003706Y003117D01*
X003691Y003127D01*
X003678Y003140D01*
X003669Y003156D01*
X003663Y003173D01*
X003661Y003191D01*
X003686Y002994D02*
X003686Y002206D01*
X004474Y002206D01*
X004474Y002994D01*
X003686Y002994D01*
X015859Y017275D02*
X015934Y017275D01*
X016009Y017350D01*
X016009Y017725D01*
X015934Y017725D02*
X016084Y017725D01*
X016245Y017575D02*
X016395Y017725D01*
X016395Y017275D01*
X016245Y017275D02*
X016545Y017275D01*
X015859Y017275D02*
X015784Y017350D01*
D13*
X010860Y018370D02*
X010400Y018370D01*
X010400Y018600D01*
X010476Y018677D01*
X010630Y018677D01*
X010707Y018600D01*
X010707Y018370D01*
X010707Y018523D02*
X010860Y018677D01*
X010860Y018830D02*
X010860Y019137D01*
X010860Y018984D02*
X010400Y018984D01*
X010553Y018830D01*
X010476Y019291D02*
X010400Y019368D01*
X010400Y019521D01*
X010476Y019598D01*
X010553Y019598D01*
X010860Y019291D01*
X010860Y019598D01*
X008860Y019598D02*
X008860Y019291D01*
X008860Y019444D02*
X008400Y019444D01*
X008553Y019291D01*
X008400Y018984D02*
X008860Y018984D01*
X008860Y019137D02*
X008860Y018830D01*
X008860Y018677D02*
X008707Y018523D01*
X008707Y018600D02*
X008707Y018370D01*
X008860Y018370D02*
X008400Y018370D01*
X008400Y018600D01*
X008476Y018677D01*
X008630Y018677D01*
X008707Y018600D01*
X008553Y018830D02*
X008400Y018984D01*
X008060Y017917D02*
X008060Y017610D01*
X008060Y017763D02*
X007600Y017763D01*
X007753Y017610D01*
X007676Y017456D02*
X007600Y017379D01*
X007600Y017226D01*
X007676Y017149D01*
X007983Y017149D01*
X008060Y017226D01*
X008060Y017379D01*
X007983Y017456D01*
X008200Y017098D02*
X008276Y017098D01*
X008583Y016791D01*
X008660Y016791D01*
X008660Y016637D02*
X008660Y016330D01*
X008660Y016177D02*
X008507Y016023D01*
X008507Y016100D02*
X008430Y016177D01*
X008276Y016177D01*
X008200Y016100D01*
X008200Y015870D01*
X008660Y015870D01*
X008507Y015870D02*
X008507Y016100D01*
X008353Y016330D02*
X008200Y016484D01*
X008660Y016484D01*
X008200Y016791D02*
X008200Y017098D01*
X007440Y017550D02*
X007440Y017850D01*
X006920Y017840D02*
X006920Y017550D01*
X004760Y018370D02*
X004300Y018370D01*
X004300Y018600D01*
X004376Y018677D01*
X004530Y018677D01*
X004607Y018600D01*
X004607Y018370D01*
X004607Y018523D02*
X004760Y018677D01*
X004760Y018830D02*
X004760Y019137D01*
X004760Y018984D02*
X004300Y018984D01*
X004453Y018830D01*
X004376Y019291D02*
X004300Y019368D01*
X004300Y019521D01*
X004376Y019598D01*
X004683Y019291D01*
X004760Y019368D01*
X004760Y019521D01*
X004683Y019598D01*
X004376Y019598D01*
X004376Y019291D02*
X004683Y019291D01*
X002760Y019061D02*
X002760Y018907D01*
X002683Y018830D01*
X002760Y018677D02*
X002607Y018523D01*
X002607Y018600D02*
X002607Y018370D01*
X002760Y018370D02*
X002300Y018370D01*
X002300Y018600D01*
X002376Y018677D01*
X002530Y018677D01*
X002607Y018600D01*
X002453Y018830D02*
X002530Y018907D01*
X002530Y019137D01*
X002683Y019137D02*
X002376Y019137D01*
X002300Y019061D01*
X002300Y018907D01*
X002376Y018830D01*
X002453Y018830D01*
X002683Y019137D02*
X002760Y019061D01*
X002483Y017098D02*
X002560Y017021D01*
X002560Y016868D01*
X002483Y016791D01*
X002560Y016637D02*
X002560Y016330D01*
X002560Y016177D02*
X002407Y016023D01*
X002407Y016100D02*
X002330Y016177D01*
X002176Y016177D01*
X002100Y016100D01*
X002100Y015870D01*
X002560Y015870D01*
X002407Y015870D02*
X002407Y016100D01*
X002253Y016330D02*
X002100Y016484D01*
X002560Y016484D01*
X002176Y016791D02*
X002100Y016868D01*
X002100Y017021D01*
X002176Y017098D01*
X002253Y017098D01*
X002330Y017021D01*
X002407Y017098D01*
X002483Y017098D01*
X002330Y017021D02*
X002330Y016944D01*
X003640Y016049D02*
X003640Y015665D01*
X003716Y015589D01*
X003870Y015589D01*
X003947Y015665D01*
X003947Y016049D01*
X004100Y015895D02*
X004253Y016049D01*
X004253Y015589D01*
X004100Y015589D02*
X004407Y015589D01*
X004464Y014680D02*
X004464Y014220D01*
X004617Y014220D02*
X004310Y014220D01*
X004157Y014220D02*
X004003Y014373D01*
X004080Y014373D02*
X003850Y014373D01*
X003850Y014220D02*
X003850Y014680D01*
X004080Y014680D01*
X004157Y014604D01*
X004157Y014450D01*
X004080Y014373D01*
X004310Y014527D02*
X004464Y014680D01*
X002230Y012098D02*
X002230Y011791D01*
X002000Y012021D01*
X002460Y012021D01*
X002460Y011637D02*
X002460Y011330D01*
X002460Y011177D02*
X002307Y011023D01*
X002307Y011100D02*
X002307Y010870D01*
X002460Y010870D02*
X002000Y010870D01*
X002000Y011100D01*
X002076Y011177D01*
X002230Y011177D01*
X002307Y011100D01*
X002153Y011330D02*
X002000Y011484D01*
X002460Y011484D01*
X003640Y011049D02*
X003640Y010665D01*
X003716Y010589D01*
X003870Y010589D01*
X003947Y010665D01*
X003947Y011049D01*
X004100Y010972D02*
X004177Y011049D01*
X004330Y011049D01*
X004407Y010972D01*
X004407Y010895D01*
X004100Y010589D01*
X004407Y010589D01*
X004441Y009780D02*
X004287Y009780D01*
X004210Y009704D01*
X004057Y009704D02*
X004057Y009550D01*
X003980Y009473D01*
X003750Y009473D01*
X003750Y009320D02*
X003750Y009780D01*
X003980Y009780D01*
X004057Y009704D01*
X003903Y009473D02*
X004057Y009320D01*
X004210Y009320D02*
X004517Y009627D01*
X004517Y009704D01*
X004441Y009780D01*
X004517Y009320D02*
X004210Y009320D01*
X002460Y007521D02*
X002460Y007368D01*
X002383Y007291D01*
X002230Y007291D02*
X002153Y007444D01*
X002153Y007521D01*
X002230Y007598D01*
X002383Y007598D01*
X002460Y007521D01*
X002230Y007291D02*
X002000Y007291D01*
X002000Y007598D01*
X002460Y007137D02*
X002460Y006830D01*
X002460Y006677D02*
X002307Y006523D01*
X002307Y006600D02*
X002307Y006370D01*
X002460Y006370D02*
X002000Y006370D01*
X002000Y006600D01*
X002076Y006677D01*
X002230Y006677D01*
X002307Y006600D01*
X002153Y006830D02*
X002000Y006984D01*
X002460Y006984D01*
X003640Y006549D02*
X003640Y006165D01*
X003716Y006089D01*
X003870Y006089D01*
X003947Y006165D01*
X003947Y006549D01*
X004100Y006472D02*
X004177Y006549D01*
X004330Y006549D01*
X004407Y006472D01*
X004407Y006395D01*
X004330Y006319D01*
X004407Y006242D01*
X004407Y006165D01*
X004330Y006089D01*
X004177Y006089D01*
X004100Y006165D01*
X004253Y006319D02*
X004330Y006319D01*
X004341Y005180D02*
X004187Y005180D01*
X004110Y005104D01*
X003957Y005104D02*
X003957Y004950D01*
X003880Y004873D01*
X003650Y004873D01*
X003650Y004720D02*
X003650Y005180D01*
X003880Y005180D01*
X003957Y005104D01*
X004264Y004950D02*
X004341Y004950D01*
X004417Y004873D01*
X004417Y004797D01*
X004341Y004720D01*
X004187Y004720D01*
X004110Y004797D01*
X003957Y004720D02*
X003803Y004873D01*
X004341Y004950D02*
X004417Y005027D01*
X004417Y005104D01*
X004341Y005180D01*
X002383Y003098D02*
X002460Y003021D01*
X002460Y002868D01*
X002383Y002791D01*
X002230Y002791D01*
X002230Y003021D01*
X002307Y003098D01*
X002383Y003098D01*
X002076Y002944D02*
X002230Y002791D01*
X002076Y002944D02*
X002000Y003098D01*
X002000Y002484D02*
X002460Y002484D01*
X002460Y002637D02*
X002460Y002330D01*
X002460Y002177D02*
X002307Y002023D01*
X002307Y002100D02*
X002307Y001870D01*
X002460Y001870D02*
X002000Y001870D01*
X002000Y002100D01*
X002076Y002177D01*
X002230Y002177D01*
X002307Y002100D01*
X002153Y002330D02*
X002000Y002484D01*
X002150Y001480D02*
X002380Y001480D01*
X002457Y001404D01*
X002457Y001250D01*
X002380Y001173D01*
X002150Y001173D01*
X002150Y001020D02*
X002150Y001480D01*
X002303Y001173D02*
X002457Y001020D01*
X002610Y001250D02*
X002917Y001250D01*
X002841Y001020D02*
X002841Y001480D01*
X002610Y001250D01*
X003640Y001665D02*
X003716Y001589D01*
X003870Y001589D01*
X003947Y001665D01*
X003947Y002049D01*
X003640Y002049D02*
X003640Y001665D01*
X004100Y001819D02*
X004407Y001819D01*
X004330Y001589D02*
X004330Y002049D01*
X004100Y001819D01*
X008100Y001870D02*
X008100Y002100D01*
X008176Y002177D01*
X008330Y002177D01*
X008407Y002100D01*
X008407Y001870D01*
X008560Y001870D02*
X008100Y001870D01*
X008407Y002023D02*
X008560Y002177D01*
X008560Y002330D02*
X008253Y002637D01*
X008176Y002637D01*
X008100Y002561D01*
X008100Y002407D01*
X008176Y002330D01*
X008560Y002330D02*
X008560Y002637D01*
X008483Y002791D02*
X008176Y003098D01*
X008483Y003098D01*
X008560Y003021D01*
X008560Y002868D01*
X008483Y002791D01*
X008176Y002791D01*
X008100Y002868D01*
X008100Y003021D01*
X008176Y003098D01*
X008250Y001480D02*
X008480Y001480D01*
X008557Y001404D01*
X008557Y001250D01*
X008480Y001173D01*
X008250Y001173D01*
X008250Y001020D02*
X008250Y001480D01*
X008403Y001173D02*
X008557Y001020D01*
X008710Y001097D02*
X008710Y001173D01*
X008787Y001250D01*
X008941Y001250D01*
X009017Y001173D01*
X009017Y001097D01*
X008941Y001020D01*
X008787Y001020D01*
X008710Y001097D01*
X008787Y001250D02*
X008710Y001327D01*
X008710Y001404D01*
X008787Y001480D01*
X008941Y001480D01*
X009017Y001404D01*
X009017Y001327D01*
X008941Y001250D01*
X009740Y001665D02*
X009816Y001589D01*
X009970Y001589D01*
X010047Y001665D01*
X010047Y002049D01*
X010200Y001972D02*
X010200Y001895D01*
X010277Y001819D01*
X010430Y001819D01*
X010507Y001742D01*
X010507Y001665D01*
X010430Y001589D01*
X010277Y001589D01*
X010200Y001665D01*
X010200Y001742D01*
X010277Y001819D01*
X010430Y001819D02*
X010507Y001895D01*
X010507Y001972D01*
X010430Y002049D01*
X010277Y002049D01*
X010200Y001972D01*
X009740Y002049D02*
X009740Y001665D01*
X009750Y004720D02*
X009750Y005180D01*
X009980Y005180D01*
X010057Y005104D01*
X010057Y004950D01*
X009980Y004873D01*
X009750Y004873D01*
X009903Y004873D02*
X010057Y004720D01*
X010210Y004720D02*
X010210Y004797D01*
X010517Y005104D01*
X010517Y005180D01*
X010210Y005180D01*
X010200Y006089D02*
X010200Y006165D01*
X010507Y006472D01*
X010507Y006549D01*
X010200Y006549D01*
X010047Y006549D02*
X010047Y006165D01*
X009970Y006089D01*
X009816Y006089D01*
X009740Y006165D01*
X009740Y006549D01*
X008660Y006677D02*
X008507Y006523D01*
X008507Y006600D02*
X008507Y006370D01*
X008660Y006370D02*
X008200Y006370D01*
X008200Y006600D01*
X008276Y006677D01*
X008430Y006677D01*
X008507Y006600D01*
X008660Y006830D02*
X008660Y007137D01*
X008660Y006984D02*
X008200Y006984D01*
X008353Y006830D01*
X008353Y007291D02*
X008430Y007368D01*
X008430Y007598D01*
X008583Y007598D02*
X008276Y007598D01*
X008200Y007521D01*
X008200Y007368D01*
X008276Y007291D01*
X008353Y007291D01*
X008583Y007291D02*
X008660Y007368D01*
X008660Y007521D01*
X008583Y007598D01*
X009850Y009220D02*
X009850Y009680D01*
X010080Y009680D01*
X010157Y009604D01*
X010157Y009450D01*
X010080Y009373D01*
X009850Y009373D01*
X010003Y009373D02*
X010157Y009220D01*
X010310Y009297D02*
X010310Y009450D01*
X010541Y009450D01*
X010617Y009373D01*
X010617Y009297D01*
X010541Y009220D01*
X010387Y009220D01*
X010310Y009297D01*
X010310Y009450D02*
X010464Y009604D01*
X010617Y009680D01*
X010430Y010589D02*
X010277Y010589D01*
X010200Y010665D01*
X010200Y010819D01*
X010430Y010819D01*
X010507Y010742D01*
X010507Y010665D01*
X010430Y010589D01*
X010200Y010819D02*
X010353Y010972D01*
X010507Y011049D01*
X010047Y011049D02*
X010047Y010665D01*
X009970Y010589D01*
X009816Y010589D01*
X009740Y010665D01*
X009740Y011049D01*
X008660Y011177D02*
X008507Y011023D01*
X008507Y011100D02*
X008507Y010870D01*
X008660Y010870D02*
X008200Y010870D01*
X008200Y011100D01*
X008276Y011177D01*
X008430Y011177D01*
X008507Y011100D01*
X008660Y011330D02*
X008660Y011637D01*
X008660Y011484D02*
X008200Y011484D01*
X008353Y011330D01*
X008353Y011791D02*
X008276Y011791D01*
X008200Y011868D01*
X008200Y012021D01*
X008276Y012098D01*
X008353Y012098D01*
X008430Y012021D01*
X008430Y011868D01*
X008353Y011791D01*
X008430Y011868D02*
X008507Y011791D01*
X008583Y011791D01*
X008660Y011868D01*
X008660Y012021D01*
X008583Y012098D01*
X008507Y012098D01*
X008430Y012021D01*
X009850Y014220D02*
X009850Y014680D01*
X010080Y014680D01*
X010157Y014604D01*
X010157Y014450D01*
X010080Y014373D01*
X009850Y014373D01*
X010003Y014373D02*
X010157Y014220D01*
X010310Y014297D02*
X010387Y014220D01*
X010541Y014220D01*
X010617Y014297D01*
X010617Y014450D01*
X010541Y014527D01*
X010464Y014527D01*
X010310Y014450D01*
X010310Y014680D01*
X010617Y014680D01*
X010430Y015589D02*
X010277Y015589D01*
X010200Y015665D01*
X010047Y015665D02*
X010047Y016049D01*
X010200Y016049D02*
X010200Y015819D01*
X010353Y015895D01*
X010430Y015895D01*
X010507Y015819D01*
X010507Y015665D01*
X010430Y015589D01*
X010507Y016049D02*
X010200Y016049D01*
X010047Y015665D02*
X009970Y015589D01*
X009816Y015589D01*
X009740Y015665D01*
X009740Y016049D01*
D14*
X010021Y015098D03*
X010341Y015098D03*
X010341Y010098D03*
X010021Y010098D03*
X010021Y005598D03*
X010341Y005598D03*
X010341Y001098D03*
X010021Y001098D03*
X004241Y001098D03*
X003921Y001098D03*
X003921Y005598D03*
X004241Y005598D03*
X004241Y010098D03*
X003921Y010098D03*
X003921Y015098D03*
X004241Y015098D03*
D15*
X002882Y015941D03*
X002882Y016261D03*
X003082Y018441D03*
X003082Y018761D03*
X005082Y018761D03*
X005082Y018441D03*
X008982Y016261D03*
X008982Y015941D03*
X009182Y018441D03*
X009182Y018761D03*
X011182Y018761D03*
X011182Y018441D03*
X008982Y011261D03*
X008982Y010941D03*
X008982Y006761D03*
X008982Y006441D03*
X008882Y002261D03*
X008882Y001941D03*
X002782Y001941D03*
X002782Y002261D03*
X002782Y006441D03*
X002782Y006761D03*
X002782Y010941D03*
X002782Y011261D03*
D16*
X015680Y011600D03*
X015680Y010600D03*
X015680Y009600D03*
X015680Y008600D03*
X015680Y007600D03*
X015680Y006600D03*
X015680Y005600D03*
X015680Y004600D03*
X015680Y003600D03*
X015680Y002600D03*
X015680Y001600D03*
X016680Y001600D03*
X016680Y002600D03*
X016680Y003600D03*
X016680Y004600D03*
X016680Y005600D03*
X016680Y006600D03*
X016680Y007600D03*
X016680Y008600D03*
X016680Y009600D03*
X016680Y010600D03*
X016680Y011600D03*
X016680Y012600D03*
X016680Y013600D03*
X016680Y014600D03*
X016680Y015600D03*
X016680Y016600D03*
X015680Y016600D03*
X015680Y015600D03*
X015680Y014600D03*
X015680Y013600D03*
X015680Y012600D03*
D17*
X007180Y017412D03*
X007180Y017982D03*
M02*
